<svg id="visual" viewBox="0 0 960 300" width="960" height="300" xmlns="http://www.w3.org/2000/svg" xmlns:xlink="http://www.w3.org/1999/xlink" version="1.1"><rect x="0" y="0" width="960" height="300" fill="#001220"></rect><path d="M0 100L22.8 100.5C45.7 101 91.3 102 137 101.5C182.7 101 228.3 99 274 95.5C319.7 92 365.3 87 411.2 85.7C457 84.3 503 86.7 548.8 93.3C594.7 100 640.3 111 686 114.3C731.7 117.7 777.3 113.3 823 113.2C868.7 113 914.3 117 937.2 119L960 121L960 0L937.2 0C914.3 0 868.7 0 823 0C777.3 0 731.7 0 686 0C640.3 0 594.7 0 548.8 0C503 0 457 0 411.2 0C365.3 0 319.7 0 274 0C228.3 0 182.7 0 137 0C91.3 0 45.7 0 22.8 0L0 0Z" fill="#fa7268"></path><path d="M0 83L22.8 83.2C45.7 83.3 91.3 83.7 137 81C182.7 78.3 228.3 72.7 274 73.5C319.7 74.3 365.3 81.7 411.2 87C457 92.3 503 95.7 548.8 93.7C594.7 91.7 640.3 84.3 686 82.8C731.7 81.3 777.3 85.7 823 88.2C868.7 90.7 914.3 91.3 937.2 91.7L960 92L960 0L937.2 0C914.3 0 868.7 0 823 0C777.3 0 731.7 0 686 0C640.3 0 594.7 0 548.8 0C503 0 457 0 411.2 0C365.3 0 319.7 0 274 0C228.3 0 182.7 0 137 0C91.3 0 45.7 0 22.8 0L0 0Z" fill="#ef5f67"></path><path d="M0 66L22.8 67.5C45.7 69 91.3 72 137 71.3C182.7 70.7 228.3 66.3 274 62.3C319.7 58.3 365.3 54.7 411.2 54.7C457 54.7 503 58.3 548.8 58.2C594.7 58 640.3 54 686 53.7C731.7 53.3 777.3 56.7 823 61.3C868.7 66 914.3 72 937.2 75L960 78L960 0L937.2 0C914.3 0 868.7 0 823 0C777.3 0 731.7 0 686 0C640.3 0 594.7 0 548.8 0C503 0 457 0 411.2 0C365.3 0 319.7 0 274 0C228.3 0 182.7 0 137 0C91.3 0 45.7 0 22.8 0L0 0Z" fill="#e34c67"></path><path d="M0 47L22.8 45.8C45.7 44.7 91.3 42.3 137 40.7C182.7 39 228.3 38 274 40.3C319.7 42.7 365.3 48.3 411.2 49C457 49.7 503 45.3 548.8 45.2C594.7 45 640.3 49 686 49.2C731.7 49.3 777.3 45.7 823 45.8C868.7 46 914.3 50 937.2 52L960 54L960 0L937.2 0C914.3 0 868.7 0 823 0C777.3 0 731.7 0 686 0C640.3 0 594.7 0 548.8 0C503 0 457 0 411.2 0C365.3 0 319.7 0 274 0C228.3 0 182.7 0 137 0C91.3 0 45.7 0 22.8 0L0 0Z" fill="#d53867"></path><path d="M0 31L22.8 29.2C45.7 27.3 91.3 23.7 137 23.3C182.7 23 228.3 26 274 24.7C319.7 23.3 365.3 17.7 411.2 18C457 18.3 503 24.7 548.8 24.8C594.7 25 640.3 19 686 16.3C731.7 13.7 777.3 14.3 823 18.2C868.7 22 914.3 29 937.2 32.5L960 36L960 0L937.2 0C914.3 0 868.7 0 823 0C777.3 0 731.7 0 686 0C640.3 0 594.7 0 548.8 0C503 0 457 0 411.2 0C365.3 0 319.7 0 274 0C228.3 0 182.7 0 137 0C91.3 0 45.7 0 22.8 0L0 0Z" fill="#c62368"></path></svg>