<svg id="visual" viewBox="0 0 960 540" width="960" height="540" xmlns="http://www.w3.org/2000/svg" xmlns:xlink="http://www.w3.org/1999/xlink" version="1.1"><rect x="0" y="0" width="960" height="540" fill="#001220"></rect><path d="M0 160L14.5 166C29 172 58 184 87.2 190.5C116.3 197 145.7 198 174.8 194.3C204 190.7 233 182.3 262 183.3C291 184.3 320 194.7 349 196C378 197.3 407 189.7 436.2 186.3C465.3 183 494.7 184 523.8 181.2C553 178.3 582 171.7 611 174.7C640 177.7 669 190.3 698 191.5C727 192.7 756 182.3 785.2 175.3C814.3 168.3 843.7 164.7 872.8 165.2C902 165.7 931 170.3 945.5 172.7L960 175L960 0L945.5 0C931 0 902 0 872.8 0C843.7 0 814.3 0 785.2 0C756 0 727 0 698 0C669 0 640 0 611 0C582 0 553 0 523.8 0C494.7 0 465.3 0 436.2 0C407 0 378 0 349 0C320 0 291 0 262 0C233 0 204 0 174.8 0C145.7 0 116.3 0 87.2 0C58 0 29 0 14.5 0L0 0Z" fill="#fa7268"></path><path d="M0 164L14.5 162.3C29 160.7 58 157.3 87.2 157.7C116.3 158 145.7 162 174.8 158.8C204 155.7 233 145.3 262 144C291 142.7 320 150.3 349 150.7C378 151 407 144 436.2 143.8C465.3 143.7 494.7 150.3 523.8 154.3C553 158.3 582 159.7 611 158.8C640 158 669 155 698 150.7C727 146.3 756 140.7 785.2 136C814.3 131.3 843.7 127.7 872.8 128.5C902 129.3 931 134.7 945.5 137.3L960 140L960 0L945.5 0C931 0 902 0 872.8 0C843.7 0 814.3 0 785.2 0C756 0 727 0 698 0C669 0 640 0 611 0C582 0 553 0 523.8 0C494.7 0 465.3 0 436.2 0C407 0 378 0 349 0C320 0 291 0 262 0C233 0 204 0 174.8 0C145.7 0 116.3 0 87.2 0C58 0 29 0 14.5 0L0 0Z" fill="#ef5f67"></path><path d="M0 119L14.5 117.2C29 115.3 58 111.7 87.2 109.2C116.3 106.7 145.7 105.3 174.8 103.7C204 102 233 100 262 100.2C291 100.3 320 102.7 349 107.8C378 113 407 121 436.2 120.3C465.3 119.7 494.7 110.3 523.8 106.2C553 102 582 103 611 104C640 105 669 106 698 105.7C727 105.3 756 103.7 785.2 107.3C814.3 111 843.7 120 872.8 123.2C902 126.3 931 123.7 945.5 122.3L960 121L960 0L945.5 0C931 0 902 0 872.8 0C843.7 0 814.3 0 785.2 0C756 0 727 0 698 0C669 0 640 0 611 0C582 0 553 0 523.8 0C494.7 0 465.3 0 436.2 0C407 0 378 0 349 0C320 0 291 0 262 0C233 0 204 0 174.8 0C145.7 0 116.3 0 87.2 0C58 0 29 0 14.5 0L0 0Z" fill="#e34c67"></path><path d="M0 91L14.5 91.7C29 92.3 58 93.7 87.2 92.2C116.3 90.7 145.7 86.3 174.8 81.3C204 76.3 233 70.7 262 69.5C291 68.3 320 71.7 349 73C378 74.3 407 73.7 436.2 72.7C465.3 71.7 494.7 70.3 523.8 73.8C553 77.3 582 85.7 611 89.7C640 93.7 669 93.3 698 90C727 86.7 756 80.3 785.2 79.7C814.3 79 843.7 84 872.8 85.8C902 87.7 931 86.3 945.5 85.7L960 85L960 0L945.5 0C931 0 902 0 872.8 0C843.7 0 814.3 0 785.2 0C756 0 727 0 698 0C669 0 640 0 611 0C582 0 553 0 523.8 0C494.7 0 465.3 0 436.2 0C407 0 378 0 349 0C320 0 291 0 262 0C233 0 204 0 174.8 0C145.7 0 116.3 0 87.2 0C58 0 29 0 14.5 0L0 0Z" fill="#d53867"></path><path d="M0 54L14.5 50.3C29 46.7 58 39.3 87.2 36.5C116.3 33.7 145.7 35.3 174.8 35.2C204 35 233 33 262 35.2C291 37.3 320 43.7 349 45.7C378 47.7 407 45.3 436.2 42.8C465.3 40.3 494.7 37.7 523.8 39.2C553 40.7 582 46.3 611 48.8C640 51.3 669 50.7 698 49C727 47.3 756 44.7 785.2 44.8C814.3 45 843.7 48 872.8 49.8C902 51.7 931 52.3 945.5 52.7L960 53L960 0L945.5 0C931 0 902 0 872.8 0C843.7 0 814.3 0 785.2 0C756 0 727 0 698 0C669 0 640 0 611 0C582 0 553 0 523.8 0C494.7 0 465.3 0 436.2 0C407 0 378 0 349 0C320 0 291 0 262 0C233 0 204 0 174.8 0C145.7 0 116.3 0 87.2 0C58 0 29 0 14.5 0L0 0Z" fill="#c62368"></path></svg>